<svg viewBox="0 0 21 20" fill="none" xmlns="http://www.w3.org/2000/svg" class="size-5" xmlns:xlink="http://www.w3.org/1999/xlink"><mask id="mask0_25413_62234" maskUnits="userSpaceOnUse" x="0" y="0" width="21" height="20" style="mask-type: alpha;"><path d="M8.5 2C7.39543 2 6.5 2.89543 6.5 4V14C6.5 15.1046 7.39543 16 8.5 16H14.5C15.6046 16 16.5 15.1046 16.5 14V4C16.5 2.89543 15.6046 2 14.5 2H8.5ZM7.5 4C7.5 3.44772 7.94772 3 8.5 3H14.5C15.0523 3 15.5 3.44772 15.5 4V14C15.5 14.5523 15.0523 15 14.5 15H8.5C7.94772 15 7.5 14.5523 7.5 14V4ZM4.5 6.00001C4.5 5.25973 4.9022 4.61339 5.5 4.26758V14.5C5.5 15.8807 6.61929 17 8 17H14.2324C13.8866 17.5978 13.2403 18 12.5 18H8C6.067 18 4.5 16.433 4.5 14.5V6.00001Z" fill="currentColor"></path></mask><g mask="url(#mask0_25413_62234)"><rect width="24" height="24" transform="translate(-1.5 -2)" fill="currentColor"></rect></g></svg>